<?xml version="1.0" encoding="UTF-8" standalone="no"?>
<!-- Created with Inkscape (http://www.inkscape.org/) -->

<svg
   width="1080"
   height="1080"
   viewBox="0 0 285.75 285.75"
   version="1.1"
   id="svg5"
   inkscape:export-filename="C:\Users\sieglr\OneDrive - Lenze SE\Desktop\logo.png"
   inkscape:export-xdpi="44.439999"
   inkscape:export-ydpi="44.439999"
   sodipodi:docname="start.svg"
   inkscape:version="1.1 (c68e22c387, 2021-05-23)"
   xmlns:inkscape="http://www.inkscape.org/namespaces/inkscape"
   xmlns:sodipodi="http://sodipodi.sourceforge.net/DTD/sodipodi-0.dtd"
   xmlns="http://www.w3.org/2000/svg"
   xmlns:svg="http://www.w3.org/2000/svg">
  <sodipodi:namedview
     id="namedview7"
     pagecolor="#505050"
     bordercolor="#eeeeee"
     borderopacity="1"
     inkscape:pageshadow="0"
     inkscape:pageopacity="0"
     inkscape:pagecheckerboard="0"
     inkscape:document-units="px"
     showgrid="false"
     inkscape:zoom="0.28578899"
     inkscape:cx="-243.18641"
     inkscape:cy="904.5135"
     inkscape:window-width="2560"
     inkscape:window-height="1361"
     inkscape:window-x="-9"
     inkscape:window-y="15"
     inkscape:window-maximized="1"
     inkscape:current-layer="layer2" />
  <defs
     id="defs2" />
  <g
     inkscape:label="Ebene 1"
     inkscape:groupmode="layer"
     id="layer1" />
  <g
     inkscape:groupmode="layer"
     id="layer2"
     inkscape:label="Ebene 2" />
  <g
     inkscape:groupmode="layer"
     id="layer3"
     inkscape:label="Ebene 3">
    <rect
       style="fill:#1c1c1e;fill-opacity:1;stroke-width:1.05833;stroke-opacity:0.604502"
       id="rect3901-7-5"
       width="19.049999"
       height="19.049999"
       x="18.755369"
       y="228.76369" />
    <path
       id="rect4790"
       style="fill:#5856d6;fill-opacity:1;stroke-width:3.99999;stroke-opacity:0.604502"
       d="M 142.81641 144.61914 L 142.81641 936.61914 L 286.88672 936.61914 L 286.88672 864.61914 L 430.95508 864.61914 L 430.95508 792.61914 L 574.95508 792.61914 L 574.95508 720.61914 L 718.88672 720.61914 L 718.88672 648.61914 L 862.88672 648.61914 L 862.88672 576.61914 L 1006.957 576.61914 L 1006.957 504.61914 L 862.88672 504.61914 L 862.88672 432.61914 L 718.88672 432.61914 L 718.88672 326.2832 L 574.95508 326.2832 L 574.95508 288.61914 L 430.95508 288.61914 L 430.95508 216.61914 L 286.88672 216.61914 L 286.88672 144.61914 L 142.81641 144.61914 z "
       transform="scale(0.26458333)" />
    <path
       id="rect3901"
       style="fill:#1c1c1e;fill-opacity:1;stroke-width:3.99999;stroke-opacity:0.604502"
       d="M 142.88672 72.619141 L 142.88672 144.61914 L 286.88672 144.61914 L 286.88672 72.619141 L 142.88672 72.619141 z M 286.88672 144.61914 L 286.88672 216.61914 L 430.88672 216.61914 L 430.88672 144.61914 L 286.88672 144.61914 z M 430.88672 216.61914 L 430.88672 288.61914 L 574.88672 288.61914 L 574.88672 216.61914 L 430.88672 216.61914 z M 574.88672 288.61914 L 574.88672 360.61914 L 718.88672 360.61914 L 718.88672 288.61914 L 574.88672 288.61914 z M 718.88672 360.61914 L 718.88672 432.61914 L 862.88672 432.61914 L 862.88672 360.61914 L 718.88672 360.61914 z M 862.88672 432.61914 L 862.88672 504.61914 L 934.88672 504.61914 L 934.88672 432.61914 L 862.88672 432.61914 z M 70.886719 144.61914 L 70.886719 935.85547 L 142.81641 935.85547 L 142.81641 144.61914 L 70.886719 144.61914 z M 862.88672 576.61914 L 862.88672 648.61914 L 934.88672 648.61914 L 934.88672 576.61914 L 862.88672 576.61914 z M 862.88672 648.61914 L 718.88672 648.61914 L 718.88672 720.61914 L 862.88672 720.61914 L 862.88672 648.61914 z M 718.88672 720.61914 L 574.88672 720.61914 L 574.88672 792.61914 L 718.88672 792.61914 L 718.88672 720.61914 z M 574.88672 792.61914 L 430.88672 792.61914 L 430.88672 864.61914 L 574.88672 864.61914 L 574.88672 792.61914 z M 430.88672 864.61914 L 286.88672 864.61914 L 286.88672 936.61914 L 430.88672 936.61914 L 430.88672 864.61914 z M 286.88672 936.61914 L 142.88672 936.61914 L 142.88672 1008.6191 L 286.88672 1008.6191 L 286.88672 936.61914 z "
       transform="scale(0.26458333)" />
    <rect
       style="fill:#f2fff7;fill-opacity:1;stroke-width:1.05833;stroke-opacity:0.604502"
       id="rect5062"
       width="38.099998"
       height="19.049999"
       x="171.15544"
       y="133.51381" />
    <rect
       style="fill:#f2fff7;fill-opacity:1;stroke-width:1.05833;stroke-opacity:0.604502"
       id="rect5062-7"
       width="38.099998"
       height="19.049999"
       x="133.05544"
       y="152.56381" />
    <rect
       style="fill:#f2fff7;fill-opacity:1;stroke-width:1.05833;stroke-opacity:0.604502"
       id="rect5062-1"
       width="38.099998"
       height="19.049999"
       x="94.955444"
       y="171.61382" />
    <rect
       style="fill:#f2fff7;fill-opacity:1;stroke-width:1.05833;stroke-opacity:0.604502"
       id="rect5062-8"
       width="38.099998"
       height="19.049999"
       x="56.855446"
       y="190.66382" />
    <rect
       style="fill:#1c1c1e;fill-opacity:1;stroke-width:0.748352;stroke-opacity:0.604502"
       id="rect5062-89"
       width="19.049999"
       height="19.049999"
       x="247.35544"
       y="133.51381" />
  </g>
</svg>
